<?xml version="1.0" encoding="UTF-8"?>
<svg width="700pt" height="700pt" version="1.1" viewBox="0 0 700 700" xmlns="http://www.w3.org/2000/svg" xmlns:xlink="http://www.w3.org/1999/xlink">
 <defs>
  <symbol id="t" overflow="visible">
   <path d="m18.766-1.125c-0.96875 0.5-1.9805 0.875-3.0312 1.125-1.043 0.25781-2.1367 0.39062-3.2812 0.39062-3.3984 0-6.0898-0.94531-8.0781-2.8438-1.9922-1.9062-2.9844-4.4844-2.9844-7.7344 0-3.2578 0.99219-5.8359 2.9844-7.7344 1.9883-1.9062 4.6797-2.8594 8.0781-2.8594 1.1445 0 2.2383 0.13281 3.2812 0.39062 1.0508 0.25 2.0625 0.625 3.0312 1.125v4.2188c-0.98047-0.65625-1.9453-1.1406-2.8906-1.4531-0.94922-0.3125-1.9492-0.46875-3-0.46875-1.875 0-3.3516 0.60547-4.4219 1.8125-1.0742 1.1992-1.6094 2.8555-1.6094 4.9688 0 2.1055 0.53516 3.7617 1.6094 4.9688 1.0703 1.1992 2.5469 1.7969 4.4219 1.7969 1.0508 0 2.0508-0.14844 3-0.45312 0.94531-0.3125 1.9102-0.80078 2.8906-1.4688z"/>
  </symbol>
  <symbol id="b" overflow="visible">
   <path d="m13.734-11.141c-0.4375-0.19531-0.87109-0.34375-1.2969-0.4375-0.41797-0.10156-0.83984-0.15625-1.2656-0.15625-1.2617 0-2.2305 0.40625-2.9062 1.2188-0.67969 0.80469-1.0156 1.9531-1.0156 3.4531v7.0625h-4.8906v-15.312h4.8906v2.5156c0.625-1 1.3438-1.7266 2.1562-2.1875 0.82031-0.46875 1.8008-0.70312 2.9375-0.70312 0.16406 0 0.34375 0.011719 0.53125 0.03125 0.19531 0.011719 0.47656 0.039062 0.84375 0.078125z"/>
  </symbol>
  <symbol id="a" overflow="visible">
   <path d="m17.641-7.7031v1.4062h-11.453c0.125 1.1484 0.53906 2.0078 1.25 2.5781 0.70703 0.57422 1.7031 0.85938 2.9844 0.85938 1.0312 0 2.082-0.14844 3.1562-0.45312 1.082-0.3125 2.1914-0.77344 3.3281-1.3906v3.7656c-1.1562 0.4375-2.3125 0.76562-3.4688 0.98438-1.1562 0.22656-2.3125 0.34375-3.4688 0.34375-2.7734 0-4.9297-0.70312-6.4688-2.1094-1.5312-1.4062-2.2969-3.3789-2.2969-5.9219 0-2.5 0.75391-4.4609 2.2656-5.8906 1.5078-1.4375 3.582-2.1562 6.2188-2.1562 2.4062 0 4.332 0.73047 5.7812 2.1875 1.4453 1.4492 2.1719 3.3828 2.1719 5.7969zm-5.0312-1.625c0-0.92578-0.27344-1.6719-0.8125-2.2344-0.54297-0.57031-1.25-0.85938-2.125-0.85938-0.94922 0-1.7188 0.26562-2.3125 0.79688s-0.96484 1.2969-1.1094 2.2969z"/>
  </symbol>
  <symbol id="m" overflow="visible">
   <path d="m9.2188-6.8906c-1.0234 0-1.793 0.17188-2.3125 0.51562-0.51172 0.34375-0.76562 0.85547-0.76562 1.5312 0 0.625 0.20703 1.1172 0.625 1.4688 0.41406 0.34375 0.98828 0.51562 1.7188 0.51562 0.92578 0 1.7031-0.32812 2.3281-0.98438 0.63281-0.66406 0.95312-1.4922 0.95312-2.4844v-0.5625zm7.4688-1.8438v8.7344h-4.9219v-2.2656c-0.65625 0.92969-1.3984 1.6055-2.2188 2.0312-0.82422 0.41406-1.8242 0.625-3 0.625-1.5859 0-2.8711-0.45703-3.8594-1.375-0.99219-0.92578-1.4844-2.1289-1.4844-3.6094 0-1.7891 0.61328-3.1016 1.8438-3.9375 1.2383-0.84375 3.1797-1.2656 5.8281-1.2656h2.8906v-0.39062c0-0.76953-0.30859-1.332-0.92188-1.6875-0.61719-0.36328-1.5703-0.54688-2.8594-0.54688-1.0547 0-2.0312 0.10547-2.9375 0.3125-0.89844 0.21094-1.7305 0.52344-2.5 0.9375v-3.7344c1.0391-0.25 2.0859-0.44141 3.1406-0.57812 1.0625-0.13281 2.125-0.20312 3.1875-0.20312 2.7578 0 4.75 0.54688 5.9688 1.6406 1.2266 1.0859 1.8438 2.8555 1.8438 5.3125z"/>
  </symbol>
  <symbol id="d" overflow="visible">
   <path d="m7.7031-19.656v4.3438h5.0469v3.5h-5.0469v6.5c0 0.71094 0.14062 1.1875 0.42188 1.4375s0.83594 0.375 1.6719 0.375h2.5156v3.5h-4.1875c-1.9375 0-3.3125-0.39844-4.125-1.2031-0.80469-0.8125-1.2031-2.1797-1.2031-4.1094v-6.5h-2.4219v-3.5h2.4219v-4.3438z"/>
  </symbol>
  <symbol id="f" overflow="visible">
   <path d="m12.766-13.078v-8.2031h4.9219v21.281h-4.9219v-2.2188c-0.66797 0.90625-1.4062 1.5703-2.2188 1.9844s-1.7578 0.625-2.8281 0.625c-1.8867 0-3.4336-0.75-4.6406-2.25-1.2109-1.5-1.8125-3.4258-1.8125-5.7812 0-2.3633 0.60156-4.2969 1.8125-5.7969 1.207-1.5 2.7539-2.25 4.6406-2.25 1.0625 0 2 0.21484 2.8125 0.64062 0.82031 0.42969 1.5664 1.0859 2.2344 1.9688zm-3.2188 9.9219c1.0391 0 1.8359-0.37891 2.3906-1.1406 0.55078-0.76953 0.82812-1.8828 0.82812-3.3438 0-1.457-0.27734-2.5664-0.82812-3.3281-0.55469-0.76953-1.3516-1.1562-2.3906-1.1562-1.043 0-1.8398 0.38672-2.3906 1.1562-0.55469 0.76172-0.82812 1.8711-0.82812 3.3281 0 1.4609 0.27344 2.5742 0.82812 3.3438 0.55078 0.76172 1.3477 1.1406 2.3906 1.1406z"/>
  </symbol>
  <symbol id="l" overflow="visible">
   <path d="m10.5-3.1562c1.0508 0 1.8516-0.37891 2.4062-1.1406 0.55078-0.76953 0.82812-1.8828 0.82812-3.3438 0-1.457-0.27734-2.5664-0.82812-3.3281-0.55469-0.76953-1.3555-1.1562-2.4062-1.1562-1.0547 0-1.8594 0.38672-2.4219 1.1562-0.55469 0.77344-0.82812 1.8828-0.82812 3.3281 0 1.4492 0.27344 2.5586 0.82812 3.3281 0.5625 0.77344 1.3672 1.1562 2.4219 1.1562zm-3.25-9.9219c0.67578-0.88281 1.4219-1.5391 2.2344-1.9688 0.82031-0.42578 1.7656-0.64062 2.8281-0.64062 1.8945 0 3.4453 0.75 4.6562 2.25 1.207 1.5 1.8125 3.4336 1.8125 5.7969 0 2.3555-0.60547 4.2812-1.8125 5.7812-1.2109 1.5-2.7617 2.25-4.6562 2.25-1.0625 0-2.0078-0.21094-2.8281-0.625-0.8125-0.42578-1.5586-1.0859-2.2344-1.9844v2.2188h-4.8906v-21.281h4.8906z"/>
  </symbol>
  <symbol id="k" overflow="visible">
   <path d="m0.34375-15.312h4.8906l4.125 10.391 3.5-10.391h4.8906l-6.4375 16.766c-0.64844 1.6953-1.4023 2.8828-2.2656 3.5625-0.86719 0.6875-2 1.0312-3.4062 1.0312h-2.8438v-3.2188h1.5312c0.83203 0 1.4375-0.13672 1.8125-0.40625 0.38281-0.26172 0.67969-0.73047 0.89062-1.4062l0.14062-0.42188z"/>
  </symbol>
  <symbol id="j" overflow="visible">
   <path d="m2.5781-20.406h5.25v20.406h-5.25z"/>
  </symbol>
  <symbol id="e" overflow="visible">
   <path d="m14.719-14.828v3.9844c-0.65625-0.45703-1.3242-0.79688-2-1.0156-0.66797-0.21875-1.3594-0.32812-2.0781-0.32812-1.3672 0-2.4336 0.40234-3.2031 1.2031-0.76172 0.79297-1.1406 1.9062-1.1406 3.3438 0 1.4297 0.37891 2.543 1.1406 3.3438 0.76953 0.79297 1.8359 1.1875 3.2031 1.1875 0.75781 0 1.4844-0.10938 2.1719-0.32812 0.6875-0.22656 1.3203-0.56641 1.9062-1.0156v4c-0.76172 0.28125-1.5391 0.48828-2.3281 0.625-0.78125 0.14453-1.5742 0.21875-2.375 0.21875-2.7617 0-4.9219-0.70703-6.4844-2.125-1.5547-1.4141-2.3281-3.3828-2.3281-5.9062 0-2.5312 0.77344-4.5039 2.3281-5.9219 1.5625-1.4141 3.7227-2.125 6.4844-2.125 0.80078 0 1.5938 0.074219 2.375 0.21875 0.78125 0.13672 1.5547 0.35156 2.3281 0.64062z"/>
  </symbol>
  <symbol id="c" overflow="visible">
   <path d="m9.6406-12.188c-1.0859 0-1.9141 0.39062-2.4844 1.1719-0.57422 0.78125-0.85938 1.9062-0.85938 3.375s0.28516 2.5938 0.85938 3.375c0.57031 0.77344 1.3984 1.1562 2.4844 1.1562 1.0625 0 1.875-0.38281 2.4375-1.1562 0.57031-0.78125 0.85938-1.9062 0.85938-3.375s-0.28906-2.5938-0.85938-3.375c-0.5625-0.78125-1.375-1.1719-2.4375-1.1719zm0-3.5c2.6328 0 4.6914 0.71484 6.1719 2.1406 1.4766 1.418 2.2188 3.3867 2.2188 5.9062 0 2.5117-0.74219 4.4805-2.2188 5.9062-1.4805 1.418-3.5391 2.125-6.1719 2.125-2.6484 0-4.7148-0.70703-6.2031-2.125-1.4922-1.4258-2.2344-3.3945-2.2344-5.9062 0-2.5195 0.74219-4.4883 2.2344-5.9062 1.4883-1.4258 3.5547-2.1406 6.2031-2.1406z"/>
  </symbol>
  <symbol id="i" overflow="visible">
   <path d="m17.75-9.3281v9.3281h-4.9219v-7.1406c0-1.3203-0.03125-2.2344-0.09375-2.7344s-0.16797-0.86719-0.3125-1.1094c-0.1875-0.3125-0.44922-0.55469-0.78125-0.73438-0.32422-0.17578-0.69531-0.26562-1.1094-0.26562-1.0234 0-1.8242 0.39844-2.4062 1.1875-0.58594 0.78125-0.875 1.8711-0.875 3.2656v7.5312h-4.8906v-15.312h4.8906v2.2344c0.73828-0.88281 1.5195-1.5391 2.3438-1.9688 0.83203-0.42578 1.75-0.64062 2.75-0.64062 1.7695 0 3.1133 0.54688 4.0312 1.6406 0.91406 1.0859 1.375 2.6562 1.375 4.7188z"/>
  </symbol>
  <symbol id="s" overflow="visible">
   <path d="m14.312-14.828v3.7188c-1.043-0.4375-2.0547-0.76562-3.0312-0.98438-0.98047-0.21875-1.9023-0.32812-2.7656-0.32812-0.92969 0-1.6211 0.11719-2.0781 0.34375-0.44922 0.23047-0.67188 0.58984-0.67188 1.0781 0 0.38672 0.17188 0.68359 0.51562 0.89062 0.34375 0.21094 0.95703 0.36719 1.8438 0.46875l0.85938 0.125c2.5078 0.32422 4.1953 0.85156 5.0625 1.5781 0.86328 0.73047 1.2969 1.8711 1.2969 3.4219 0 1.6367-0.60547 2.8672-1.8125 3.6875-1.1992 0.8125-2.9922 1.2188-5.375 1.2188-1.0234 0-2.0742-0.078125-3.1562-0.23438-1.0742-0.15625-2.1797-0.39453-3.3125-0.71875v-3.7188c0.96875 0.48047 1.9609 0.83984 2.9844 1.0781 1.0312 0.23047 2.0781 0.34375 3.1406 0.34375 0.95703 0 1.6758-0.12891 2.1562-0.39062 0.47656-0.26953 0.71875-0.66406 0.71875-1.1875 0-0.4375-0.16797-0.75781-0.5-0.96875-0.33594-0.21875-0.99609-0.38281-1.9844-0.5l-0.85938-0.10938c-2.1797-0.26953-3.7031-0.77344-4.5781-1.5156-0.875-0.73828-1.3125-1.8594-1.3125-3.3594 0-1.625 0.55078-2.8281 1.6562-3.6094 1.1133-0.78906 2.8203-1.1875 5.125-1.1875 0.89453 0 1.8359 0.074219 2.8281 0.21875 1 0.13672 2.082 0.35156 3.25 0.64062z"/>
  </symbol>
  <symbol id="h" overflow="visible">
   <path d="m2.5781-20.406h8.7344c2.5938 0 4.582 0.57812 5.9688 1.7344 1.3945 1.1484 2.0938 2.7891 2.0938 4.9219 0 2.1367-0.69922 3.7812-2.0938 4.9375-1.3867 1.1562-3.375 1.7344-5.9688 1.7344h-3.4844v7.0781h-5.25zm5.25 3.8125v5.7031h2.9219c1.0195 0 1.8047-0.25 2.3594-0.75 0.5625-0.5 0.84375-1.2031 0.84375-2.1094 0-0.91406-0.28125-1.6172-0.84375-2.1094-0.55469-0.48828-1.3398-0.73438-2.3594-0.73438z"/>
  </symbol>
  <symbol id="g" overflow="visible">
   <path d="m2.1875-5.9688v-9.3438h4.9219v1.5312c0 0.83594-0.007813 1.875-0.015625 3.125-0.011719 1.25-0.015625 2.0859-0.015625 2.5 0 1.2422 0.03125 2.1328 0.09375 2.6719 0.070313 0.54297 0.17969 0.93359 0.32812 1.1719 0.20703 0.32422 0.47266 0.57422 0.79688 0.75 0.32031 0.16797 0.69141 0.25 1.1094 0.25 1.0195 0 1.8203-0.39062 2.4062-1.1719 0.58203-0.78125 0.875-1.8672 0.875-3.2656v-7.5625h4.8906v15.312h-4.8906v-2.2188c-0.74219 0.89844-1.5234 1.5586-2.3438 1.9844-0.82422 0.41406-1.7344 0.625-2.7344 0.625-1.7617 0-3.1055-0.53906-4.0312-1.625-0.92969-1.082-1.3906-2.6602-1.3906-4.7344z"/>
  </symbol>
  <symbol id="r" overflow="visible">
   <path d="m12.422-21.281v3.2188h-2.7031c-0.6875 0-1.1719 0.125-1.4531 0.375-0.27344 0.25-0.40625 0.6875-0.40625 1.3125v1.0625h4.1875v3.5h-4.1875v11.812h-4.8906v-11.812h-2.4375v-3.5h2.4375v-1.0625c0-1.6641 0.46094-2.8984 1.3906-3.7031 0.92578-0.80078 2.3672-1.2031 4.3281-1.2031z"/>
  </symbol>
  <symbol id="q" overflow="visible">
   <path d="m16.547-12.766c0.61328-0.94531 1.3477-1.6719 2.2031-2.1719 0.85156-0.5 1.7891-0.75 2.8125-0.75 1.7578 0 3.0977 0.54688 4.0156 1.6406 0.92578 1.0859 1.3906 2.6562 1.3906 4.7188v9.3281h-4.9219v-7.9844-0.35938c0.007813-0.13281 0.015625-0.32031 0.015625-0.5625 0-1.082-0.16406-1.8633-0.48438-2.3438-0.3125-0.48828-0.82422-0.73438-1.5312-0.73438-0.92969 0-1.6484 0.38672-2.1562 1.1562-0.51172 0.76172-0.77344 1.8672-0.78125 3.3125v7.5156h-4.9219v-7.9844c0-1.6953-0.14844-2.7852-0.4375-3.2656-0.29297-0.48828-0.8125-0.73438-1.5625-0.73438-0.9375 0-1.6641 0.38672-2.1719 1.1562-0.51172 0.76172-0.76562 1.8594-0.76562 3.2969v7.5312h-4.9219v-15.312h4.9219v2.2344c0.60156-0.86328 1.2891-1.5156 2.0625-1.9531 0.78125-0.4375 1.6406-0.65625 2.5781-0.65625 1.0625 0 2 0.25781 2.8125 0.76562 0.8125 0.51172 1.4258 1.2305 1.8438 2.1562z"/>
  </symbol>
  <symbol id="p" overflow="visible">
   <path d="m17.75-9.3281v9.3281h-4.9219v-7.1094c0-1.3438-0.03125-2.2656-0.09375-2.7656s-0.16797-0.86719-0.3125-1.1094c-0.1875-0.3125-0.44922-0.55469-0.78125-0.73438-0.32422-0.17578-0.69531-0.26562-1.1094-0.26562-1.0234 0-1.8242 0.39844-2.4062 1.1875-0.58594 0.78125-0.875 1.8711-0.875 3.2656v7.5312h-4.8906v-21.281h4.8906v8.2031c0.73828-0.88281 1.5195-1.5391 2.3438-1.9688 0.83203-0.42578 1.75-0.64062 2.75-0.64062 1.7695 0 3.1133 0.54688 4.0312 1.6406 0.91406 1.0859 1.375 2.6562 1.375 4.7188z"/>
  </symbol>
  <symbol id="o" overflow="visible">
   <path d="m2.5781-20.406h5.875l7.4219 14v-14h4.9844v20.406h-5.875l-7.4219-14v14h-4.9844z"/>
  </symbol>
  <symbol id="n" overflow="visible">
   <path d="m2.3594-15.312h4.8906v15.031c0 2.0508-0.49609 3.6172-1.4844 4.7031-0.98047 1.082-2.4062 1.625-4.2812 1.625h-2.4219v-3.2188h0.85938c0.92578 0 1.5625-0.21094 1.9062-0.625 0.35156-0.41797 0.53125-1.2461 0.53125-2.4844zm0-5.9688h4.8906v4h-4.8906z"/>
  </symbol>
 </defs>
 <g>
  <path d="m564.65 273.39c0.12891-1.7344-0.55078-3.4297-1.8477-4.5898l-12.375-10.246 13.105-15.289h-0.003906c0.91406-1.2656 1.2617-2.8594 0.95312-4.3906-0.30859-1.5312-1.2422-2.8633-2.5781-3.6758l-16.801-9.9102 12.883-18.09c1.0078-1.375 1.3359-3.1328 0.89062-4.7812-0.44922-1.6445-1.6211-3-3.1875-3.6758l-24.023-10.305 9.1836-19.207 16.801-7.2812v0.003906c1.6602-0.72266 2.8711-2.2031 3.2461-3.9766 6.1055-28.672-12.992-40.711-23.91-43.062v-0.003906c-2.9258-0.63672-5.8398 1.1406-6.6094 4.0352-2.2227 6.0898-5.6523 11.668-10.078 16.406-1.0508-1.1953-2.5547-1.8867-4.1445-1.9023h-28.895l-11.199-16.238-0.003906-0.003907c-1.625-2.3516-4.7656-3.1016-7.2773-1.7344l-12.379 6.6055-2.5742-1.2891-6.3281-16.406c-0.66797-1.7422-2.1602-3.0391-3.9844-3.457-1.8203-0.41406-3.7305 0.10547-5.0859 1.3867-3.5117 3.4961-7.375 6.6094-11.539 9.2969-29.965-6.0898-61.066 1.8984-84.391 21.672-24.781-2.8125-49.828 2.0508-71.762 13.926-21.93 11.879-39.691 30.199-50.879 52.488-12.609 5.6172-23.844 13.91-32.926 24.305l-16.801 6.1055c-2.7188 0.97656-4.25 3.8633-3.5273 6.6641l3.9219 15.176-14.672 9.5195h-0.003906c-2.1953 1.4102-3.125 4.1523-2.2383 6.6055l8.2305 23.129-16.801 22.68c-0.9375 1.2617-1.3047 2.8633-1.0039 4.4062 0.29688 1.5469 1.2305 2.8945 2.5742 3.7148l14.617 8.9023-10.305 23.352v0.003906c-0.60938 1.3906-0.625 2.9727-0.042969 4.375 0.58203 1.4062 1.707 2.5156 3.1211 3.0703l11.93 4.8711-3.0781 21.84h-0.003906c-0.43359 3.043 1.6641 5.8672 4.7031 6.3281l18.535 2.8555-2.8555 17.754c-0.26172 1.6562 0.23438 3.3398 1.3438 4.5938 1.1016 1.2539 2.7031 1.9492 4.3711 1.9023l24.641-0.78516 5.3203 17.863-0.003906 0.003907c0.86719 2.9375 3.9375 4.6367 6.8906 3.8047l19.488-5.6016 8.3438 19.992v0.003906c0.59766 1.418 1.75 2.5273 3.1914 3.0664 1.4414 0.53906 3.0391 0.46484 4.4219-0.21094l22.398-10.809 14 17.078 0.003906 0.003906c1.75 2.1641 4.832 2.7148 7.2227 1.2852l22.902-13.664 13.215 12.879 0.003906 0.003907c2.1406 1.957 5.418 1.957 7.5586 0l18.258-15.684 16.801 9.5781c2.5508 1.4258 5.7734 0.64453 7.3906-1.793l14.672-22.062 22.398 5.6016v-0.003906c2.2539 0.55469 4.6133-0.33594 5.9375-2.2383l11.199-20.16h20.047c2.4102 0.007812 4.5508-1.5273 5.3203-3.8086l8.5117-24.191h23.297c1.6445 0.019531 3.2109-0.68359 4.2891-1.9258 1.0781-1.2383 1.5586-2.8906 1.3125-4.5156l-3.3047-22.398 25.367-8.3438c1.4414-0.47266 2.6289-1.5039 3.293-2.8672 0.66406-1.3594 0.75-2.9336 0.23438-4.3555l-5.6016-15.793 23.016-9.4062 0.003906-0.003906c1.4688-0.60156 2.6133-1.8008 3.1445-3.2969 0.53516-1.4922 0.41016-3.1445-0.34375-4.543l-11.199-21 20.215-15.789c1.2305-1.1133 1.9102-2.7109 1.8477-4.3711zm-25.648-145.6c5.6016 2.7422 13.664 9.5742 11.199 25.367l-14.84 6.4961-19.824 0.003906 1.3984-4.3672h0.003906c8.9141-7.8828 16.383-17.266 22.062-27.723zm-17.922 57.012c-0.46484-4.7305-1.2305-9.4258-2.293-14.059h8.9609zm-344.68 139.66c2.2383 3.5859 7.7266 5.6016 16.406 5.6016l0.003906-0.003906c4.5742-0.0625 9.1406-0.4375 13.664-1.1172-1.2305 3.4141-2.0703 6.1055-2.4648 7.5586-3.4453 4.2266-4.7812 9.7891-3.6406 15.121 2.5195 10.922 15.23 16.801 16.801 17.641 15.906 8.2148 33.508 12.621 51.406 12.879 16.535 0.23828 32.789-4.293 46.816-13.047 4.7422 0.51172 9.5117 0.77344 14.281 0.78125 75.711 0 110.99-66.586 117.21-79.688 61.098-25.703 61.602-91.223 61.152-98.281 1.1133-5.9688-0.48828-12.125-4.3672-16.797-3.8945-4.1953-9.2422-6.7383-14.953-7.1133 0.99219-2.6836 1.3555-5.5547 1.0664-8.3984-0.33203-2.957-1.168-5.8359-2.4648-8.5117 6.1953 3.1914 12.066 6.9805 17.527 11.309 11.199 32.258 5.3203 71.961-17.359 112-33.602 59.023-95.93 105.89-155.29 116.76-97.16 17.641-148.34-40.77-155.18-49.223-1.5898-7.207-2.6016-14.531-3.0234-21.898 0.70703 1.5273 1.5117 3.0039 2.4062 4.4258zm103.43-52.191c11.293 9.6875 20.105 21.938 25.703 35.727 1.1992 2.7148 4.3086 4.0234 7.0859 2.9844 2.7812-1.0391 4.2656-4.0703 3.3867-6.9062-6.1875-15.617-16.086-29.492-28.84-40.43 3.3047-11.199 19.488-48.887 85.008-54.266 5.6016 2.9688 27.609 15.457 34.16 32.258 1.2148 2.7422 4.375 4.0391 7.1641 2.9414 2.793-1.0938 4.2266-4.1953 3.2539-7.0312-6.5508-16.801-24.359-29.289-34.215-35.168h-0.003906c20.773-17.777 47.371-27.27 74.703-26.656 9.4023 0.023438 18.777 0.94141 28 2.7461h1.2344c3.1523-0.10938 6.2266 1.0156 8.5664 3.1367 1.8477 2.5312 2.4258 5.7734 1.5703 8.7891-0.035156 0.375-0.035156 0.75 0 1.1211 0 0.61719 2.6328 60.93-50.398 86.184h-0.003907c-2.5664-8.3086-6.9258-15.953-12.766-22.398-2.1836-2.2734-5.793-2.3477-8.0664-0.16797-2.2734 2.1797-2.3477 5.7891-0.16797 8.0625 5.5312 6.1445 9.3906 13.605 11.199 21.672-5.1523 11.199-39.199 79.184-116.82 72.801h0.003906c0.46094-7.4688 0.25391-14.965-0.61719-22.398-0.33984-3.0938-3.125-5.3242-6.2148-4.9844-3.0938 0.33984-5.3242 3.1211-4.9844 6.2148 0.9375 7.7109 1.0508 15.504 0.33594 23.238-7.7266 4.9844-39.816 22.398-86.688-0.89453-2.9688-1.3438-9.4062-5.6016-10.473-10.078 0-0.72656-0.67188-2.9688 2.1836-6.5508v-0.003906c0.54297-0.66797 0.92969-1.4531 1.1211-2.293 0.39063-0.39453 12.879-51.859 65.52-67.648zm226.97-122.42c-2.1289-1.5664-4.7031-3.3594-7.6719-5.1523h9.2969zm-37.129-22.398 3.8633 5.6016c-2.2969-2.0703-4.2578-3.6953-5.6016-4.6484zm-246.01 82.879c12.441 8.1172 22.707 19.152 29.902 32.145 0.96484 1.8594 2.8906 3.0273 4.9844 3.0234 0.89844 0.003906 1.7812-0.20703 2.5781-0.61719 1.3242-0.67969 2.3203-1.8594 2.7734-3.2773 0.45312-1.4219 0.32031-2.9609-0.36719-4.2812-7.7891-14.207-18.871-26.344-32.312-35.391 7.8398-15.062 39.199-64.176 111.44-57.344 12.609 8.5391 21.605 21.445 25.258 36.23 0.75781 3 3.8008 4.8164 6.8008 4.0586 3-0.75781 4.8203-3.8047 4.0625-6.8047-3.8945-15.48-12.77-29.254-25.258-39.199 20.305-15.773 46.586-21.668 71.68-16.07h0.50391c0.50391 0.050781 1.0117 0.050781 1.5117 0 6.8789 1.6719 13.574 4.0156 19.992 7l0.72656 0.33594h0.003906c4.3164 2.0117 8.5234 4.2578 12.598 6.7188 4.4258 3.2461 17.246 14.504 18.145 23.406v0.003907c0.21875 2.0234-0.41016 4.0508-1.7344 5.5977-62.832-7.7812-98.395 24.527-106.23 32.648-72.238 6.1602-90.551 50.008-94.414 63-28.277 8.5039-51.707 28.441-64.625 54.992-8.5898 1.9688-17.453 2.4609-26.207 1.457-2.4766-4.9102-4.3555-10.102-5.6016-15.457l-1.0078-3.5859v0.003907c-2.4492-13.777-1.625-27.934 2.4102-41.328 1.3359-1.2695 1.9609-3.1094 1.6797-4.9297 7.375-18.98 22.031-34.223 40.711-42.336zm-56 56.617c0 1.793-0.50391 3.4727-0.67187 5.207l-1.793-3.8633zm-9.9688 48.719 5.0977-6.832v9.9688zm374.3-28c-2.1328 1.6875-2.75 4.6641-1.457 7.0547l10.586 19.656-22.398 9.1289h-0.003907c-2.6953 1.1133-4.082 4.1133-3.1914 6.8867l5.6016 15.398-24.414 8.0078-0.003906 0.003906c-2.6055 0.84375-4.2148 3.4492-3.8086 6.1602l3.0273 20.832h-20.891c-2.4062-0.007812-4.5469 1.5273-5.3203 3.8086l-8.0078 24.191h-19.32c-2.0078-0.007812-3.8672 1.0586-4.8711 2.8008l-11.199 19.266-21.953-5.6016c-2.2969-0.59766-4.7227 0.32422-6.0469 2.293l-13.945 20.887-16.016-9.0156v0.003906c-2.0703-1.168-4.6523-0.89844-6.4375 0.67188l-17.531 15.23-12.602-12.266h0.003906c-1.8203-1.6445-4.4961-1.918-6.6094-0.67187l-22.398 13.383-13.777-16.801v0.003906c-1.6367-2.0117-4.4375-2.6367-6.7773-1.5117l-20.777 10.137-8.0039-19.211c-1.0859-2.6055-3.9414-4-6.6641-3.2461l-18.93 5.3203-4.9844-16.801c-0.73828-2.4492-3.043-4.0859-5.5977-3.9766l-22.398 0.72656 2.6875-16.801-0.003906 0.003906c0.38672-2.8945-1.5117-5.6016-4.3672-6.2188l-18.648-2.9102 2.8555-20.496c0.375-2.543-1.0352-5.0156-3.4141-5.9922l-10.641-4.3672 3.3047-7.4492c0.16406 0.60156 0.42969 1.168 0.78516 1.6797 16.156 18.457 36.137 33.18 58.551 43.148 22.414 9.9727 46.727 14.949 71.254 14.59 12.398-0.019531 24.77-1.1641 36.961-3.418 62.441-11.422 127.79-60.59 163.02-122.19 15.242-25.305 23.656-54.133 24.418-83.664l22.902 9.8008-12.602 17.191h0.003906c-0.94922 1.2812-1.3086 2.9023-0.98828 4.4648 0.32031 1.5586 1.2891 2.9102 2.668 3.7109l16.801 9.6875-12.434 14.504c-0.97656 1.1406-1.457 2.6211-1.3281 4.1172 0.125 1.4961 0.84766 2.875 2 3.8359l11.199 9.4648z"/>
  <path d="m443.97 367.02c-1.4258-0.41406-2.9609-0.24609-4.2617 0.46484-1.3008 0.71484-2.2656 1.918-2.6836 3.3438l-4.9844 17.137-18.984-5.0977c-2.9375-0.68359-5.8906 1.082-6.6758 3.9961-0.78516 2.918 0.87891 5.9297 3.7656 6.8125l24.246 6.5508c2.9531 0.79297 5.9922-0.92578 6.832-3.8633l6.5508-22.398h0.003906c0.41406-1.4258 0.24609-2.9609-0.46875-4.2617-0.71094-1.3008-1.9141-2.2656-3.3398-2.6836z"/>
  <use x="70" y="644" xlink:href="#t"/>
  <use x="90.550781" y="644" xlink:href="#b"/>
  <use x="104.359375" y="644" xlink:href="#a"/>
  <use x="123.347656" y="644" xlink:href="#m"/>
  <use x="142.242188" y="644" xlink:href="#d"/>
  <use x="155.628906" y="644" xlink:href="#a"/>
  <use x="174.617188" y="644" xlink:href="#f"/>
  <use x="204.410156" y="644" xlink:href="#l"/>
  <use x="224.453125" y="644" xlink:href="#k"/>
  <use x="252.453125" y="644" xlink:href="#j"/>
  <use x="262.867188" y="644" xlink:href="#e"/>
  <use x="279.46875" y="644" xlink:href="#c"/>
  <use x="298.703125" y="644" xlink:href="#i"/>
  <use x="318.636719" y="644" xlink:href="#s"/>
  <use x="345.050781" y="644" xlink:href="#h"/>
  <use x="365.570312" y="644" xlink:href="#b"/>
  <use x="379.382812" y="644" xlink:href="#c"/>
  <use x="398.617188" y="644" xlink:href="#f"/>
  <use x="418.660156" y="644" xlink:href="#g"/>
  <use x="438.59375" y="644" xlink:href="#e"/>
  <use x="455.191406" y="644" xlink:href="#a"/>
  <use x="474.179687" y="644" xlink:href="#b"/>
  <use x="70" y="672" xlink:href="#r"/>
  <use x="82.183594" y="672" xlink:href="#b"/>
  <use x="95.992188" y="672" xlink:href="#c"/>
  <use x="115.226562" y="672" xlink:href="#q"/>
  <use x="154.152344" y="672" xlink:href="#d"/>
  <use x="167.535156" y="672" xlink:href="#p"/>
  <use x="187.46875" y="672" xlink:href="#a"/>
  <use x="216.207031" y="672" xlink:href="#o"/>
  <use x="239.640625" y="672" xlink:href="#c"/>
  <use x="258.878906" y="672" xlink:href="#g"/>
  <use x="278.8125" y="672" xlink:href="#i"/>
  <use x="308.492188" y="672" xlink:href="#h"/>
  <use x="329.015625" y="672" xlink:href="#b"/>
  <use x="342.820312" y="672" xlink:href="#c"/>
  <use x="362.058594" y="672" xlink:href="#n"/>
  <use x="371.65625" y="672" xlink:href="#a"/>
  <use x="390.648438" y="672" xlink:href="#e"/>
  <use x="407.242188" y="672" xlink:href="#d"/>
 </g>
</svg>
